<?xml version="1.0" encoding="UTF-8"?><svg width="38.1mm" height="8.99583mm" viewBox="0 0 144 34" xmlns="http://www.w3.org/2000/svg" xmlns:xlink="http://www.w3.org/1999/xlink"><g fill="none" stroke="black" stroke-width="1" fill-rule="evenodd" stroke-linecap="square" stroke-linejoin="bevel"><g clip-path="none" fill="#ffffff" fill-opacity="1" opacity="1" stroke="none" stroke-opacity="0" transform="matrix(1,0,0,1,0,0)"><path d="M0,0 L144,0 L144,34 L0,34 L0,0 z" fill-rule="evenodd" vector-effect="none"/></g><defs><clipPath id="clip3"><path d="M-57,-2 L87,-2 L87,32 L-57,32 L-57,-2 z"/></clipPath></defs><g clip-path="url(#clip3)" fill="#ffffff" fill-opacity="1" opacity="1" stroke="none" stroke-opacity="0" transform="matrix(1,0,0,1,57,2)"><path d="M0,0 L30,15 L0,30 L0,0 z" fill-rule="nonzero" vector-effect="none"/></g><defs><clipPath id="clip7"><path d="M0,0 L30,0 L30,30 L0,30 L0,0 z"/></clipPath></defs><g clip-path="url(#clip7)" fill="none" opacity="1" stroke="none" stroke-opacity="0" transform="matrix(1,0,0,1,57,2)"><path d="M0,0 L30,15 L0,30 L0,0 z" fill-rule="nonzero" vector-effect="none"/></g><defs><clipPath id="clip17"><path d="M7,0 L37,0 L37,30 L7,30 L7,0 z"/></clipPath></defs><g clip-path="url(#clip17)" fill="#000000" fill-opacity="1" opacity="1" stroke="none" stroke-opacity="0" transform="matrix(1,0,0,1,50.5,2.5)"><path d="M12.7031,10.7031 L13.6875,10.7031 L13.6875,13.7969 L16.9531,10.7031 L18.2344,10.7031 L14.6094,14.1094 L18.4844,18 L17.1875,18 L13.6875,14.4844 L13.6875,18 L12.7031,18 L12.7031,10.7031 z" fill-rule="nonzero" vector-effect="none"/></g><defs><clipPath id="clip37"><path d="M-57.5,-2.5 L86.5,-2.5 L86.5,31.5 L-57.5,31.5 L-57.5,-2.5 z"/></clipPath></defs><g clip-path="url(#clip37)" fill="none" opacity="1" stroke="#000000" stroke-linecap="butt" stroke-linejoin="miter" stroke-miterlimit="2" stroke-opacity="1" stroke-width="1" transform="matrix(1,0,0,1,57.5,2.5)"><path d="M0,0 L30,15 L0,30 L0,0 z" fill-rule="nonzero" vector-effect="none"/></g><defs><clipPath id="clip40"><path d="M-2,-10 L142,-10 L142,24 L-2,24 L-2,-10 z"/></clipPath></defs><g clip-path="url(#clip40)" fill="#ffffff" fill-opacity="1" opacity="1" stroke="none" stroke-opacity="0" transform="matrix(1,0,0,1,2,10)"><path d="M7,0 L23,0 C26.866,0 30,3.13401 30,7 C30,10.866 26.866,14 23,14 L7,14 C3.13401,14 0,10.866 0,7 C0,3.13401 3.13401,0 7,0 z" fill-rule="nonzero" vector-effect="none"/></g><defs><clipPath id="clip44"><path d="M-15,-7 L15,-7 L15,7 L-15,7 L-15,-7 z"/></clipPath></defs><g clip-path="url(#clip44)" fill="none" opacity="1" stroke="#000000" stroke-linecap="butt" stroke-linejoin="miter" stroke-miterlimit="2" stroke-opacity="1" stroke-width="1" transform="matrix(1,0,0,1,17,17)"><text fill="#000000" fill-opacity="1" font-family="Liberation Sans" font-size="10" font-style="normal" font-weight="400" stroke="none" textLength="8.3125" x="-4.15625" xml:space="preserve" y="3.5">In</text></g><defs><clipPath id="clip49"><path d="M-2.5,-10.5 L141.5,-10.5 L141.5,23.5 L-2.5,23.5 L-2.5,-10.5 z"/></clipPath></defs><g clip-path="url(#clip49)" fill="none" opacity="1" stroke="#000000" stroke-linecap="butt" stroke-linejoin="miter" stroke-miterlimit="2" stroke-opacity="1" stroke-width="1" transform="matrix(1,0,0,1,2.5,10.5)"><path d="M7,0 L23,0 C26.866,0 30,3.13401 30,7 C30,10.866 26.866,14 23,14 L7,14 C3.13401,14 0,10.866 0,7 C0,3.13401 3.13401,0 7,0 z" fill-rule="nonzero" vector-effect="none"/></g><defs><clipPath id="clip52"><path d="M-112,-10 L32,-10 L32,24 L-112,24 L-112,-10 z"/></clipPath></defs><g clip-path="url(#clip52)" fill="#ffffff" fill-opacity="1" opacity="1" stroke="none" stroke-opacity="0" transform="matrix(1,0,0,1,112,10)"><path d="M7,0 L23,0 C26.866,0 30,3.13401 30,7 C30,10.866 26.866,14 23,14 L7,14 C3.13401,14 0,10.866 0,7 C0,3.13401 3.13401,0 7,0 z" fill-rule="nonzero" vector-effect="none"/></g><defs><clipPath id="clip56"><path d="M-15,-7 L15,-7 L15,7 L-15,7 L-15,-7 z"/></clipPath></defs><g clip-path="url(#clip56)" fill="none" opacity="1" stroke="#000000" stroke-linecap="butt" stroke-linejoin="miter" stroke-miterlimit="2" stroke-opacity="1" stroke-width="1" transform="matrix(1,0,0,1,127,17)"><text fill="#000000" fill-opacity="1" font-family="Liberation Sans" font-size="10" font-style="normal" font-weight="400" stroke="none" textLength="16.0781" x="-8.03125" xml:space="preserve" y="3.5">Out</text></g><defs><clipPath id="clip61"><path d="M-112.5,-10.5 L31.5,-10.5 L31.5,23.5 L-112.5,23.5 L-112.5,-10.5 z"/></clipPath></defs><g clip-path="url(#clip61)" fill="none" opacity="1" stroke="#000000" stroke-linecap="butt" stroke-linejoin="miter" stroke-miterlimit="2" stroke-opacity="1" stroke-width="1" transform="matrix(1,0,0,1,112.5,10.5)"><path d="M7,0 L23,0 C26.866,0 30,3.13401 30,7 C30,10.866 26.866,14 23,14 L7,14 C3.13401,14 0,10.866 0,7 C0,3.13401 3.13401,0 7,0 z" fill-rule="nonzero" vector-effect="none"/></g><defs><clipPath id="clip64"><path d="M-57,-17 L87,-17 L87,17 L-57,17 L-57,-17 z"/></clipPath></defs><g clip-path="url(#clip64)" fill="#000000" fill-opacity="1" opacity="1" stroke="none" stroke-opacity="0" transform="matrix(1,0,0,1,57,17)"><path d="M0,0 L-8,-4 L-8,4 L0,0 z" fill-rule="nonzero" vector-effect="none"/></g><defs><clipPath id="clip67"><path d="M258,203 L402,203 L402,237 L258,237 L258,203 z"/></clipPath></defs><g clip-path="url(#clip67)" fill="none" opacity="1" stroke="#000000" stroke-linecap="butt" stroke-linejoin="miter" stroke-miterlimit="2" stroke-opacity="1" stroke-width="1" transform="matrix(1,0,0,1,-258,-203)"><path d="M290.5,220.5 L307.5,220.5" fill-rule="evenodd" vector-effect="none"/></g><defs><clipPath id="clip70"><path d="M-112,-17 L32,-17 L32,17 L-112,17 L-112,-17 z"/></clipPath></defs><g clip-path="url(#clip70)" fill="#000000" fill-opacity="1" opacity="1" stroke="none" stroke-opacity="0" transform="matrix(1,0,0,1,112,17)"><path d="M0,0 L-8,-4 L-8,4 L0,0 z" fill-rule="nonzero" vector-effect="none"/></g><defs><clipPath id="clip73"><path d="M258,203 L402,203 L402,237 L258,237 L258,203 z"/></clipPath></defs><g clip-path="url(#clip73)" fill="none" opacity="1" stroke="#000000" stroke-linecap="butt" stroke-linejoin="miter" stroke-miterlimit="2" stroke-opacity="1" stroke-width="1" transform="matrix(1,0,0,1,-258,-203)"><path d="M345.5,220.5 L362.5,220.5" fill-rule="evenodd" vector-effect="none"/></g></g><!--generated on ubuntu @ 2019-12-10 13:29:27 PST--></svg>
